<svg width="19" height="19" viewBox="0 0 19 19" fill="none" xmlns="http://www.w3.org/2000/svg">
<path d="M2.96154 4.92308C4.04487 4.92308 4.92308 4.04487 4.92308 2.96154C4.92308 1.87821 4.04487 1 2.96154 1C1.87821 1 1 1.87821 1 2.96154C1 4.04487 1.87821 4.92308 2.96154 4.92308Z" stroke="white" stroke-width="1.7" stroke-linecap="round" stroke-linejoin="round"/>
<path d="M4.9231 2.96143H18" stroke="white" stroke-width="1.7" stroke-linecap="round" stroke-linejoin="round"/>
<path d="M9.50011 11.4617C10.5834 11.4617 11.4617 10.5834 11.4617 9.50011C11.4617 8.41678 10.5834 7.53857 9.50011 7.53857C8.41678 7.53857 7.53857 8.41678 7.53857 9.50011C7.53857 10.5834 8.41678 11.4617 9.50011 11.4617Z" stroke="white" stroke-width="1.7" stroke-linecap="round" stroke-linejoin="round"/>
<path d="M1 9.5H7.53846M11.4615 9.5H18" stroke="white" stroke-width="1.7" stroke-linecap="round" stroke-linejoin="round"/>
<path d="M16.0384 18C17.1218 18 18 17.1218 18 16.0384C18 14.9551 17.1218 14.0769 16.0384 14.0769C14.9551 14.0769 14.0769 14.9551 14.0769 16.0384C14.0769 17.1218 14.9551 18 16.0384 18Z" stroke="white" stroke-width="1.7" stroke-linecap="round" stroke-linejoin="round"/>
<path d="M14.0769 16.0386H1" stroke="white" stroke-width="1.7" stroke-linecap="round" stroke-linejoin="round"/>
</svg>
